# xmcd
#
# Track frame offsets:
#	150
#	14751
#	31304
#	46041
#	56629
#	70453
#	85691
#	102746
#	116558
#	139229
#	151427
#	166849
#	180426
#	198321
#	216982
#
# Disc length: 3009 seconds
#
# Revision: 0
# Processed by: cddbd v1.5.2PL0 Copyright (c) Steve Scherf et al.
# Submitted via: dBpowerAMP V4.0
#
DISCID=d30bbf0f
DTITLE=Various Artist - The Last Ten Years
DYEAR=2007
DGENRE=Country
TTITLE0=They Only Come out at night - Macca
TTITLE1=The Last Ten Years - 
TTITLE2=Another Night In Broome - 
TTITLE3=Lover Please - 
TTITLE4=The Bushranger - 
TTITLE5=Further Down The Road - 
TTITLE6=The Man In The Picture - 
TTITLE7=Valentine - 
TTITLE8=THe Man With The Big Hat - 
TTITLE9=THe Black Stump Stomp - 
TTITLE10=Rainbows and Butterflies - 
TTITLE11=Outdoor Type - 
TTITLE12=The Timeless Land - Macce
TTITLE13=We The People - 
TTITLE14=Great Balls Of Fire - 
EXTD=
EXTT0=
EXTT1=
EXTT2=
EXTT3=
EXTT4=
EXTT5=
EXTT6=
EXTT7=
EXTT8=
EXTT9=
EXTT10=
EXTT11=
EXTT12=
EXTT13=
EXTT14=
PLAYORDER=
